<svg width="39" height="39" viewBox="0 0 39 39" fill="none" xmlns="http://www.w3.org/2000/svg">
<g clip-path="url(#clip0_150_23840)">
<path d="M38.6194 19.9492C38.6194 18.6236 38.512 17.2909 38.2827 15.9868H19.8896V23.4959H30.4225C29.9854 25.9177 28.581 28.0601 26.5246 29.4215V34.2938H32.8085C36.4985 30.8975 38.6194 25.8819 38.6194 19.9492Z" fill="#4285F4"/>
<path d="M19.8896 39.0016C25.1488 39.0016 29.584 37.2748 32.8155 34.2941L26.5317 29.4218C24.7834 30.6112 22.5263 31.2848 19.8967 31.2848C14.8095 31.2848 10.496 27.8526 8.94834 23.2383H2.46387V28.2611C5.77417 34.8459 12.5166 39.0016 19.8896 39.0016Z" fill="#34A853"/>
<path d="M8.94128 23.2379C8.12445 20.8161 8.12445 18.1936 8.94128 15.7718V10.749H2.46396C-0.30179 16.259 -0.30179 22.7507 2.46396 28.2607L8.94128 23.2379Z" fill="#FBBC04"/>
<path d="M19.8896 7.7182C22.6696 7.67521 25.3566 8.72132 27.37 10.6416L32.9373 5.07425C29.4121 1.76395 24.7332 -0.0560072 19.8896 0.00131408C12.5166 0.00131408 5.77417 4.15711 2.46387 10.7491L8.94118 15.7718C10.4817 11.1503 14.8023 7.7182 19.8896 7.7182Z" fill="#EA4335"/>
</g>
<defs>
<clipPath id="clip0_150_23840">
<rect width="39" height="39" fill="white"/>
</clipPath>
</defs>
</svg>
