<svg width="39" height="39" viewBox="0 0 39 39" fill="none" xmlns="http://www.w3.org/2000/svg">
<g clip-path="url(#clip0_150_23856)">
<path d="M19.8753 3.51152C24.9408 3.51152 25.5406 3.53437 27.5327 3.62578C29.3841 3.70957 30.3839 4.02949 31.0504 4.29609C31.9316 4.64648 32.5685 5.07305 33.2276 5.75098C33.8941 6.43652 34.3014 7.08398 34.6421 7.99043C34.9013 8.67598 35.2123 9.71191 35.2938 11.6086C35.3827 13.6652 35.4049 14.2822 35.4049 19.4848C35.4049 24.6949 35.3827 25.3119 35.2938 27.3609C35.2123 29.2652 34.9013 30.2936 34.6421 30.9791C34.3014 31.8855 33.8867 32.5406 33.2276 33.2186C32.5611 33.9041 31.9316 34.323 31.0504 34.6734C30.3839 34.94 29.3767 35.26 27.5327 35.3438C25.5332 35.4352 24.9334 35.458 19.8753 35.458C14.8099 35.458 14.21 35.4352 12.2179 35.3438C10.3665 35.26 9.36678 34.94 8.70028 34.6734C7.81901 34.323 7.18213 33.8965 6.52303 33.2186C5.85653 32.533 5.44922 31.8855 5.10856 30.9791C4.84937 30.2936 4.53833 29.2576 4.45687 27.3609C4.368 25.3043 4.34578 24.6873 4.34578 19.4848C4.34578 14.2746 4.368 13.6576 4.45687 11.6086C4.53833 9.7043 4.84937 8.67598 5.10856 7.99043C5.44922 7.08398 5.86393 6.42891 6.52303 5.75098C7.18954 5.06543 7.81901 4.64648 8.70028 4.29609C9.36678 4.02949 10.3739 3.70957 12.2179 3.62578C14.21 3.53437 14.8099 3.51152 19.8753 3.51152ZM19.8753 0C14.7284 0 14.0841 0.0228516 12.0624 0.114258C10.0481 0.205664 8.66325 0.54082 7.46354 1.0207C6.212 1.52344 5.153 2.18613 4.1014 3.27539C3.0424 4.35703 2.39811 5.44629 1.90934 6.72598C1.44279 7.96758 1.11694 9.38437 1.02808 11.4562C0.939209 13.5434 0.916992 14.2061 0.916992 19.5C0.916992 24.7939 0.939209 25.4566 1.02808 27.5361C1.11694 29.608 1.44279 31.0324 1.90934 32.2664C2.39811 33.5537 3.0424 34.643 4.1014 35.7246C5.153 36.8063 6.212 37.4766 7.45614 37.9717C8.66325 38.4516 10.0407 38.7867 12.055 38.8781C14.0767 38.9695 14.721 38.9924 19.8679 38.9924C25.0148 38.9924 25.6591 38.9695 27.6808 38.8781C29.6952 38.7867 31.08 38.4516 32.2797 37.9717C33.5238 37.4766 34.5828 36.8063 35.6344 35.7246C36.686 34.643 37.3377 33.5537 37.8191 32.274C38.2856 31.0324 38.6115 29.6156 38.7004 27.5438C38.7892 25.4643 38.8114 24.8016 38.8114 19.5076C38.8114 14.2137 38.7892 13.551 38.7004 11.4715C38.6115 9.39961 38.2856 7.9752 37.8191 6.74121C37.3525 5.44629 36.7083 4.35703 35.6493 3.27539C34.5977 2.19375 33.5387 1.52344 32.2945 1.02832C31.0874 0.548437 29.71 0.213281 27.6956 0.121875C25.6665 0.0228516 25.0222 0 19.8753 0Z" fill="white"/>
<path d="M19.8751 9.4834C14.4986 9.4834 10.1367 13.9699 10.1367 19.5C10.1367 25.0301 14.4986 29.5166 19.8751 29.5166C25.2515 29.5166 29.6134 25.0301 29.6134 19.5C29.6134 13.9699 25.2515 9.4834 19.8751 9.4834ZM19.8751 25.9975C16.387 25.9975 13.5581 23.0877 13.5581 19.5C13.5581 15.9123 16.387 13.0025 19.8751 13.0025C23.3631 13.0025 26.1921 15.9123 26.1921 19.5C26.1921 23.0877 23.3631 25.9975 19.8751 25.9975Z" fill="white"/>
<path d="M32.2726 9.0875C32.2726 10.3824 31.2507 11.426 29.9991 11.426C28.7402 11.426 27.7256 10.3748 27.7256 9.0875C27.7256 7.79258 28.7476 6.74902 29.9991 6.74902C31.2507 6.74902 32.2726 7.8002 32.2726 9.0875Z" fill="white"/>
</g>
<defs>
<clipPath id="clip0_150_23856">
<rect width="37.9167" height="39" fill="white" transform="translate(0.916992)"/>
</clipPath>
</defs>
</svg>
