<svg width="38" height="39" viewBox="0 0 38 39" fill="none" xmlns="http://www.w3.org/2000/svg">
<g clip-path="url(#clip0_150_23848)">
<path d="M37.9167 33.2929C37.9167 36.445 35.4451 39 32.3964 39H5.52026C2.47147 39 0 36.445 0 33.2929V5.7071C0 2.55512 2.47147 0 5.52026 0H32.3964C35.4452 0 37.9167 2.55512 37.9167 5.7071V33.2929Z" fill="#FAAB62"/>
<path d="M37.7215 33.1511C37.7215 36.2707 35.2754 38.7995 32.2579 38.7995H5.65782C2.64039 38.7995 0.194336 36.2707 0.194336 33.1511V5.84861C0.194336 2.72904 2.64049 0.200195 5.65782 0.200195H32.2579C35.2754 0.200195 37.7215 2.72914 37.7215 5.84861V33.1511Z" fill="#F7931E"/>
<path d="M18.9369 5.82861C15.1791 5.82861 12.1328 8.97807 12.1328 12.863C12.1328 16.748 15.1791 19.8977 18.9369 19.8977C22.6948 19.8977 25.741 16.748 25.741 12.863C25.741 8.97807 22.6948 5.82861 18.9369 5.82861ZM18.9369 15.7711C17.3835 15.7711 16.1242 14.469 16.1242 12.8631C16.1242 11.2572 17.3835 9.95524 18.9369 9.95524C20.4903 9.95524 21.7496 11.2572 21.7496 12.8631C21.7496 14.469 20.4903 15.7711 18.9369 15.7711Z" fill="white"/>
<path d="M21.3389 25.4952C24.0629 24.9215 25.6952 23.5879 25.7816 23.5163C26.5786 22.8554 26.7067 21.6517 26.0674 20.8275C25.4283 20.0034 24.264 19.8711 23.4668 20.5318C23.4499 20.5459 21.7089 21.9267 18.8444 21.9287C15.9799 21.9267 14.2021 20.5459 14.1852 20.5318C13.388 19.8711 12.2237 20.0034 11.5846 20.8275C10.9453 21.6517 11.0734 22.8554 11.8704 23.5163C11.958 23.5889 13.6577 24.9572 16.458 25.5175L12.5553 29.7342C11.846 30.4946 11.8673 31.7054 12.6029 32.4387C12.9619 32.7965 13.4246 32.9744 13.8869 32.9744C14.3716 32.9744 14.8558 32.7786 15.2188 32.3894L18.8444 28.3964L22.8363 32.4152C23.5595 33.1618 24.7307 33.1606 25.4526 32.4131C26.1745 31.6656 26.1737 30.4545 25.4506 29.7082L21.3389 25.4952Z" fill="white"/>
<path d="M18.8454 21.9282C18.8396 21.9282 18.8511 21.9283 18.8454 21.9285C18.8397 21.9283 18.8513 21.9282 18.8454 21.9282Z" fill="white"/>
</g>
<defs>
<clipPath id="clip0_150_23848">
<rect width="37.9167" height="39" fill="white"/>
</clipPath>
</defs>
</svg>
