<svg width="40" height="39" viewBox="0 0 40 39" fill="none" xmlns="http://www.w3.org/2000/svg">
<g clip-path="url(#clip0_150_23861)">
<circle cx="20.3333" cy="19.4998" r="17.3333" fill="white"/>
<path d="M35.7578 0H4.86254C3.78563 0.0138694 2.75789 0.447132 2.00317 1.20542C1.24844 1.96372 0.827874 2.98561 0.833055 4.04854V34.9515C0.827917 36.0183 1.25162 37.0435 2.01127 37.8025C2.77092 38.5614 3.8045 38.9921 4.88539 39H35.7806C36.8615 38.9921 37.8951 38.5614 38.6547 37.8025C39.4144 37.0435 39.8381 36.0183 39.833 34.9515V4.04854C39.8355 3.51841 39.732 2.99299 39.5285 2.5024C39.3249 2.01181 39.0252 1.56569 38.6467 1.1896C38.2681 0.813504 37.8181 0.514833 37.3223 0.3107C36.8266 0.106567 36.2949 0.00098333 35.7578 0V0ZM20.3178 35.6256C16.0158 35.5928 11.9029 33.876 8.88282 30.8523C5.86274 27.8287 4.1825 23.7455 4.21127 19.5C4.1825 15.2545 5.86274 11.1713 8.88282 8.14767C11.9029 5.12401 16.0158 3.40719 20.3178 3.37441C24.6218 3.40422 28.7376 5.11973 31.7601 8.14371C34.7827 11.1677 36.4645 15.2525 36.4357 19.5C36.4645 23.7475 34.7827 27.8323 31.7601 30.8563C28.7376 33.8803 24.6218 35.5958 20.3178 35.6256Z" fill="url(#paint0_linear_150_23861)"/>
<path d="M35.27 19.4998L24.0918 14.3315L24.9899 17.6431H15.6512L16.5493 14.3315L5.37109 19.5036L16.5569 24.6719L15.6589 21.3603H24.9975L24.0994 24.6719L35.27 19.5036" fill="url(#paint1_linear_150_23861)"/>
</g>
<defs>
<linearGradient id="paint0_linear_150_23861" x1="20.3182" y1="39.1104" x2="20.3182" y2="-0.0123474" gradientUnits="userSpaceOnUse">
<stop stop-color="#096FD2"/>
<stop offset="1" stop-color="#0E8EE9"/>
</linearGradient>
<linearGradient id="paint1_linear_150_23861" x1="16.5603" y1="24.6825" x2="16.5569" y2="14.3373" gradientUnits="userSpaceOnUse">
<stop stop-color="#096FD2"/>
<stop offset="1" stop-color="#0E8EE9"/>
</linearGradient>
<clipPath id="clip0_150_23861">
<rect width="39" height="39" fill="white" transform="translate(0.833008)"/>
</clipPath>
</defs>
</svg>
