<svg width="40" height="39" viewBox="0 0 40 39" fill="none" xmlns="http://www.w3.org/2000/svg">
<g clip-path="url(#clip0_150_23854)">
<path d="M13.1817 35.3448C27.8988 35.3448 35.9484 23.1518 35.9484 12.5782C35.9484 12.2318 35.9484 11.8871 35.925 11.5439C37.4909 10.4112 38.8427 9.00869 39.917 7.40208C38.4568 8.04948 36.9076 8.47386 35.3212 8.661C36.9917 7.66112 38.2419 6.08827 38.839 4.23528C37.2684 5.16739 35.55 5.82425 33.7581 6.17748C32.5517 4.89467 30.9561 4.04522 29.2183 3.76059C27.4805 3.47596 25.6973 3.77202 24.1447 4.60294C22.5921 5.43387 21.3566 6.75334 20.6294 8.35717C19.9023 9.96101 19.724 11.7598 20.1222 13.4752C16.9409 13.3156 13.8288 12.4888 10.9879 11.0486C8.14687 9.60834 5.64048 7.58678 3.63139 5.11512C2.60818 6.87661 2.29478 8.96187 2.75503 10.9463C3.21527 12.9307 4.41455 14.6652 6.10867 15.7964C4.83524 15.7591 3.58954 15.4156 2.47699 14.7949V14.8963C2.4775 16.7437 3.117 18.534 4.28703 19.9637C5.45706 21.3933 7.08559 22.3742 8.89639 22.74C7.7184 23.0613 6.48241 23.1083 5.28343 22.8773C5.79494 24.4671 6.79044 25.8573 8.13076 26.8536C9.47107 27.8498 11.0892 28.4024 12.759 28.434C11.1 29.738 9.20013 30.7022 7.16816 31.2712C5.1362 31.8403 3.01197 32.0032 0.916992 31.7506C4.57622 34.0987 8.83387 35.3443 13.1817 35.3386" fill="white"/>
</g>
<defs>
<clipPath id="clip0_150_23854">
<rect width="39" height="39" fill="white" transform="translate(0.916992)"/>
</clipPath>
</defs>
</svg>
