<svg width="39" height="39" viewBox="0 0 39 39" fill="none" xmlns="http://www.w3.org/2000/svg">
<path d="M0 18.6875C0 9.88 0 5.47625 2.73 2.73C5.47625 0 9.88 0 18.6875 0H20.3125C29.12 0 33.5238 0 36.27 2.73C39 5.47625 39 9.88 39 18.6875V20.3125C39 29.12 39 33.5238 36.27 36.27C33.5238 39 29.12 39 20.3125 39H18.6875C9.88 39 5.47625 39 2.73 36.27C0 33.5238 0 29.12 0 20.3125V18.6875Z" fill="#2787F5"/>
<path fill-rule="evenodd" clip-rule="evenodd" d="M10.5629 12.1873H7.71914C6.90664 12.1873 6.74414 12.5773 6.74414 12.9998C6.74414 13.7473 7.71914 17.4848 11.2291 22.4248C13.5854 25.7885 16.9004 27.6248 19.9066 27.6248C21.7104 27.6248 21.9379 27.2185 21.9379 26.5198V23.9685C21.9379 23.156 22.1004 22.9935 22.6854 22.9935C23.1079 22.9935 23.8229 23.2048 25.5129 24.8298C27.4466 26.7635 27.7554 27.6248 28.8441 27.6248H31.6879C32.5004 27.6248 32.9066 27.2185 32.6629 26.4223C32.4191 25.6098 31.4929 24.4723 30.2741 23.091C29.6241 22.2948 28.6166 21.466 28.3241 21.0435C27.9016 20.491 27.9991 20.2473 28.3241 19.776C28.3241 19.776 31.7854 14.901 32.1429 13.2273C32.3216 12.626 32.1429 12.1873 31.2816 12.1873H28.4379C28.1719 12.1714 27.908 12.2419 27.6854 12.3883C27.4628 12.5348 27.2936 12.7492 27.2029 12.9998C27.2029 12.9998 25.7404 16.5098 23.7091 18.801C23.0429 19.4673 22.7341 19.6785 22.3766 19.6785C22.2141 19.6785 21.9379 19.4673 21.9379 18.866V13.2273C21.9379 12.5123 21.7266 12.1873 21.1254 12.1873H16.6566C16.2016 12.1873 15.9254 12.5123 15.9254 12.8373C15.9254 13.5198 16.9654 13.6823 17.0629 15.5998V19.7923C17.0629 20.7185 16.9004 20.881 16.5429 20.881C15.5679 20.881 13.2279 17.3385 11.8304 13.2923C11.5704 12.5123 11.2941 12.1873 10.5629 12.1873Z" fill="white"/>
</svg>
